<?xml version="1.0" encoding="UTF-8" standalone="no"?><svg xmlns="http://www.w3.org/2000/svg" xmlns:xlink="http://www.w3.org/1999/xlink" contentScriptType="application/ecmascript" contentStyleType="text/css" height="2951px" preserveAspectRatio="none" style="width:377px;height:2951px;" version="1.1" viewBox="0 0 377 2951" width="377px" zoomAndPan="magnify"><defs><filter height="300%" id="fij6dms92wlkl" width="300%" x="-1" y="-1"><feGaussianBlur result="blurOut" stdDeviation="2.0"/><feColorMatrix in="blurOut" result="blurOut2" type="matrix" values="0 0 0 0 0 0 0 0 0 0 0 0 0 0 0 0 0 0 .4 0"/><feOffset dx="4.0" dy="4.0" in="blurOut2" result="blurOut3"/><feBlend in="SourceGraphic" in2="blurOut3" mode="normal"/></filter></defs><g><rect fill="#FEFECE" filter="url(#fij6dms92wlkl)" height="33.9688" rx="12.5" ry="12.5" style="stroke: #A80036; stroke-width: 1.5;" width="94" x="104.5" y="10"/><text fill="#000000" font-family="sans-serif" font-size="12" font-weight="bold" lengthAdjust="spacingAndGlyphs" textLength="74" x="114.5" y="31.1387">Read Date</text><rect fill="#FEFECE" filter="url(#fij6dms92wlkl)" height="33.9688" rx="12.5" ry="12.5" style="stroke: #A80036; stroke-width: 1.5;" width="110" x="96.5" y="112.3711"/><text fill="#000000" font-family="sans-serif" font-size="12" lengthAdjust="spacingAndGlyphs" textLength="90" x="106.5" y="133.5098">Return -EBUSY</text><ellipse cx="151.5" cy="185.8555" fill="#FFFFFF" filter="url(#fij6dms92wlkl)" rx="11" ry="11" style="stroke: #000000; stroke-width: 1.0;"/><ellipse cx="151.5" cy="185.8555" fill="#000000" rx="6" ry="6" style="stroke: #7F7F7F; stroke-width: 1.0;"/><polygon fill="#FEFECE" filter="url(#fij6dms92wlkl)" points="95.5,63.9688,207.5,63.9688,219.5,75.9688,207.5,87.9688,95.5,87.9688,83.5,75.9688,95.5,63.9688" style="stroke: #A80036; stroke-width: 1.5;"/><text fill="#000000" font-family="sans-serif" font-size="11" lengthAdjust="spacingAndGlyphs" textLength="20" x="155.5" y="98.1792">yes</text><text fill="#000000" font-family="sans-serif" font-size="11" lengthAdjust="spacingAndGlyphs" textLength="112" x="95.5" y="79.7769">Is already accessed</text><rect fill="#FEFECE" filter="url(#fij6dms92wlkl)" height="33.9688" rx="12.5" ry="12.5" style="stroke: #A80036; stroke-width: 1.5;" width="188" x="57.5" y="238.8555"/><text fill="#000000" font-family="sans-serif" font-size="12" lengthAdjust="spacingAndGlyphs" textLength="168" x="67.5" y="259.9941">Set access flag ((_Atomic))</text><rect fill="#FEFECE" filter="url(#fij6dms92wlkl)" height="33.9688" rx="12.5" ry="12.5" style="stroke: #A80036; stroke-width: 1.5;" width="97" x="103" y="292.8242"/><text fill="#000000" font-family="sans-serif" font-size="12" font-weight="bold" lengthAdjust="spacingAndGlyphs" textLength="77" x="113" y="313.9629">Poll Status</text><rect fill="#FEFECE" filter="url(#fij6dms92wlkl)" height="33.9688" rx="12.5" ry="12.5" style="stroke: #A80036; stroke-width: 1.5;" width="115" x="94" y="346.793"/><text fill="#000000" font-family="sans-serif" font-size="12" lengthAdjust="spacingAndGlyphs" textLength="95" x="104" y="367.9316">Write to dmesg</text><rect fill="#FEFECE" filter="url(#fij6dms92wlkl)" height="33.9688" rx="12.5" ry="12.5" style="stroke: #A80036; stroke-width: 1.5;" width="115" x="94" y="400.7617"/><text fill="#000000" font-family="sans-serif" font-size="12" lengthAdjust="spacingAndGlyphs" textLength="95" x="104" y="421.9004">Read Registers</text><rect fill="#FEFECE" filter="url(#fij6dms92wlkl)" height="33.9688" rx="12.5" ry="12.5" style="stroke: #A80036; stroke-width: 1.5;" width="119" x="92" y="454.7305"/><text fill="#000000" font-family="sans-serif" font-size="12" lengthAdjust="spacingAndGlyphs" textLength="99" x="102" y="475.8691">Parse Registers</text><rect fill="#FEFECE" filter="url(#fij6dms92wlkl)" height="33.9688" rx="12.5" ry="12.5" style="stroke: #A80036; stroke-width: 1.5;" width="83" x="110" y="508.6992"/><text fill="#000000" font-family="sans-serif" font-size="12" lengthAdjust="spacingAndGlyphs" textLength="63" x="120" y="529.8379">Print Date</text><rect fill="#FEFECE" filter="url(#fij6dms92wlkl)" height="33.9688" rx="12.5" ry="12.5" style="stroke: #A80036; stroke-width: 1.5;" width="145" x="79" y="562.668"/><text fill="#000000" font-family="sans-serif" font-size="12" lengthAdjust="spacingAndGlyphs" textLength="125" x="89" y="583.8066">Release Access flag</text><rect fill="#FEFECE" filter="url(#fij6dms92wlkl)" height="33.9688" rx="12.5" ry="12.5" style="stroke: #A80036; stroke-width: 1.5;" width="123" x="90" y="616.6367"/><text fill="#000000" font-family="sans-serif" font-size="12" lengthAdjust="spacingAndGlyphs" textLength="103" x="100" y="637.7754">Return SUCCESS</text><ellipse cx="151.5" cy="681.6055" fill="#FFFFFF" filter="url(#fij6dms92wlkl)" rx="11" ry="11" style="stroke: #000000; stroke-width: 1.0;"/><ellipse cx="151.5" cy="681.6055" fill="#000000" rx="6" ry="6" style="stroke: #7F7F7F; stroke-width: 1.0;"/><rect fill="#FEFECE" filter="url(#fij6dms92wlkl)" height="33.9688" rx="12.5" ry="12.5" style="stroke: #A80036; stroke-width: 1.5;" width="97" x="103" y="702.6055"/><text fill="#000000" font-family="sans-serif" font-size="12" font-weight="bold" lengthAdjust="spacingAndGlyphs" textLength="77" x="113" y="723.7441">Write Date</text><rect fill="#FEFECE" filter="url(#fij6dms92wlkl)" height="33.9688" rx="12.5" ry="12.5" style="stroke: #A80036; stroke-width: 1.5;" width="110" x="96.5" y="804.9766"/><text fill="#000000" font-family="sans-serif" font-size="12" lengthAdjust="spacingAndGlyphs" textLength="90" x="106.5" y="826.1152">Return -EBUSY</text><ellipse cx="151.5" cy="878.4609" fill="#FFFFFF" filter="url(#fij6dms92wlkl)" rx="11" ry="11" style="stroke: #000000; stroke-width: 1.0;"/><ellipse cx="151.5" cy="878.4609" fill="#000000" rx="6" ry="6" style="stroke: #7F7F7F; stroke-width: 1.0;"/><polygon fill="#FEFECE" filter="url(#fij6dms92wlkl)" points="95.5,756.5742,207.5,756.5742,219.5,768.5742,207.5,780.5742,95.5,780.5742,83.5,768.5742,95.5,756.5742" style="stroke: #A80036; stroke-width: 1.5;"/><text fill="#000000" font-family="sans-serif" font-size="11" lengthAdjust="spacingAndGlyphs" textLength="20" x="155.5" y="790.7847">yes</text><text fill="#000000" font-family="sans-serif" font-size="11" lengthAdjust="spacingAndGlyphs" textLength="112" x="95.5" y="772.3823">Is already accessed</text><rect fill="#FEFECE" filter="url(#fij6dms92wlkl)" height="33.9688" rx="12.5" ry="12.5" style="stroke: #A80036; stroke-width: 1.5;" width="188" x="57.5" y="931.4609"/><text fill="#000000" font-family="sans-serif" font-size="12" lengthAdjust="spacingAndGlyphs" textLength="168" x="67.5" y="952.5996">Set access flag ((_Atomic))</text><rect fill="#FEFECE" filter="url(#fij6dms92wlkl)" height="33.9688" rx="12.5" ry="12.5" style="stroke: #A80036; stroke-width: 1.5;" width="251" x="26" y="985.4297"/><text fill="#000000" font-family="sans-serif" font-size="12" lengthAdjust="spacingAndGlyphs" textLength="231" x="36" y="1006.5684">Read "YYYY-MM-DD hh:mm:ss" from in</text><rect fill="#FEFECE" filter="url(#fij6dms92wlkl)" height="33.9688" rx="12.5" ry="12.5" style="stroke: #A80036; stroke-width: 1.5;" width="103" x="100" y="1039.3984"/><text fill="#000000" font-family="sans-serif" font-size="12" font-weight="bold" lengthAdjust="spacingAndGlyphs" textLength="83" x="110" y="1060.5371">Check Input</text><rect fill="#FEFECE" filter="url(#fij6dms92wlkl)" height="33.9688" rx="12.5" ry="12.5" style="stroke: #A80036; stroke-width: 1.5;" width="102" x="100.5" y="1093.3672"/><text fill="#000000" font-family="sans-serif" font-size="12" font-weight="bold" lengthAdjust="spacingAndGlyphs" textLength="82" x="110.5" y="1114.5059">Parse Input</text><rect fill="#FEFECE" filter="url(#fij6dms92wlkl)" height="33.9688" rx="12.5" ry="12.5" style="stroke: #A80036; stroke-width: 1.5;" width="85" x="109" y="1147.3359"/><text fill="#000000" font-family="sans-serif" font-size="12" lengthAdjust="spacingAndGlyphs" textLength="65" x="119" y="1168.4746">Write data</text><rect fill="#FEFECE" filter="url(#fij6dms92wlkl)" height="33.9688" rx="12.5" ry="12.5" style="stroke: #A80036; stroke-width: 1.5;" width="145" x="79" y="1201.3047"/><text fill="#000000" font-family="sans-serif" font-size="12" lengthAdjust="spacingAndGlyphs" textLength="125" x="89" y="1222.4434">Release Access flag</text><rect fill="#FEFECE" filter="url(#fij6dms92wlkl)" height="33.9688" rx="12.5" ry="12.5" style="stroke: #A80036; stroke-width: 1.5;" width="123" x="90" y="1255.2734"/><text fill="#000000" font-family="sans-serif" font-size="12" lengthAdjust="spacingAndGlyphs" textLength="103" x="100" y="1276.4121">Return SUCCESS</text><ellipse cx="151.5" cy="1320.2422" fill="#FFFFFF" filter="url(#fij6dms92wlkl)" rx="11" ry="11" style="stroke: #000000; stroke-width: 1.0;"/><ellipse cx="151.5" cy="1320.2422" fill="#000000" rx="6" ry="6" style="stroke: #7F7F7F; stroke-width: 1.0;"/><rect fill="#FEFECE" filter="url(#fij6dms92wlkl)" height="33.9688" rx="12.5" ry="12.5" style="stroke: #A80036; stroke-width: 1.5;" width="94" x="104.5" y="1341.2422"/><text fill="#000000" font-family="sans-serif" font-size="12" font-weight="bold" lengthAdjust="spacingAndGlyphs" textLength="74" x="114.5" y="1362.3809">Check OSF</text><rect fill="#FEFECE" filter="url(#fij6dms92wlkl)" height="33.9688" rx="12.5" ry="12.5" style="stroke: #A80036; stroke-width: 1.5;" width="100" x="101.5" y="1443.6133"/><text fill="#000000" font-family="sans-serif" font-size="12" lengthAdjust="spacingAndGlyphs" textLength="80" x="111.5" y="1464.752">Enable EOSC</text><rect fill="#FEFECE" filter="url(#fij6dms92wlkl)" height="33.9688" rx="12.5" ry="12.5" style="stroke: #A80036; stroke-width: 1.5;" width="84" x="109.5" y="1497.582"/><text fill="#000000" font-family="sans-serif" font-size="12" lengthAdjust="spacingAndGlyphs" textLength="64" x="119.5" y="1518.7207">Reset OSF</text><rect fill="#FEFECE" filter="url(#fij6dms92wlkl)" height="33.9688" rx="12.5" ry="12.5" style="stroke: #A80036; stroke-width: 1.5;" width="115" x="94" y="1551.5508"/><text fill="#000000" font-family="sans-serif" font-size="12" lengthAdjust="spacingAndGlyphs" textLength="95" x="104" y="1572.6895">Write to dmesg</text><rect fill="#FEFECE" filter="url(#fij6dms92wlkl)" height="33.9688" rx="12.5" ry="12.5" style="stroke: #A80036; stroke-width: 1.5;" width="92" x="105.5" y="1605.5195"/><text fill="#000000" font-family="sans-serif" font-size="12" lengthAdjust="spacingAndGlyphs" textLength="72" x="115.5" y="1626.6582">Return true</text><ellipse cx="151.5" cy="1670.4883" fill="#FFFFFF" filter="url(#fij6dms92wlkl)" rx="11" ry="11" style="stroke: #000000; stroke-width: 1.0;"/><ellipse cx="151.5" cy="1670.4883" fill="#000000" rx="6" ry="6" style="stroke: #7F7F7F; stroke-width: 1.0;"/><polygon fill="#FEFECE" filter="url(#fij6dms92wlkl)" points="139.5,1395.2109,163.5,1395.2109,175.5,1407.2109,163.5,1419.2109,139.5,1419.2109,127.5,1407.2109,139.5,1395.2109" style="stroke: #A80036; stroke-width: 1.5;"/><text fill="#000000" font-family="sans-serif" font-size="11" lengthAdjust="spacingAndGlyphs" textLength="20" x="155.5" y="1429.4214">is 1</text><text fill="#000000" font-family="sans-serif" font-size="11" lengthAdjust="spacingAndGlyphs" textLength="23" x="140" y="1411.019">OSF</text><rect fill="#FEFECE" filter="url(#fij6dms92wlkl)" height="33.9688" rx="12.5" ry="12.5" style="stroke: #A80036; stroke-width: 1.5;" width="96" x="103.5" y="1723.4883"/><text fill="#000000" font-family="sans-serif" font-size="12" lengthAdjust="spacingAndGlyphs" textLength="76" x="113.5" y="1744.627">Return false</text><ellipse cx="151.5" cy="1788.457" fill="#FFFFFF" filter="url(#fij6dms92wlkl)" rx="11" ry="11" style="stroke: #000000; stroke-width: 1.0;"/><ellipse cx="151.5" cy="1788.457" fill="#000000" rx="6" ry="6" style="stroke: #7F7F7F; stroke-width: 1.0;"/><rect fill="#FEFECE" filter="url(#fij6dms92wlkl)" height="33.9688" rx="12.5" ry="12.5" style="stroke: #A80036; stroke-width: 1.5;" width="97" x="103" y="1809.457"/><text fill="#000000" font-family="sans-serif" font-size="12" font-weight="bold" lengthAdjust="spacingAndGlyphs" textLength="77" x="113" y="1830.5957">Poll Status</text><rect fill="#FEFECE" filter="url(#fij6dms92wlkl)" height="33.9688" rx="12.5" ry="12.5" style="stroke: #A80036; stroke-width: 1.5;" width="182" x="60.5" y="1863.4258"/><text fill="#000000" font-family="sans-serif" font-size="12" lengthAdjust="spacingAndGlyphs" textLength="162" x="70.5" y="1884.5645">Read Status Register (0F)</text><rect fill="#FEFECE" filter="url(#fij6dms92wlkl)" height="33.9688" rx="12.5" ry="12.5" style="stroke: #A80036; stroke-width: 1.5;" width="283" x="10" y="1917.3945"/><text fill="#000000" font-family="sans-serif" font-size="12" lengthAdjust="spacingAndGlyphs" textLength="44" x="20" y="1938.5332">Extract</text><text fill="#000000" font-family="sans-serif" font-size="12" font-weight="bold" lengthAdjust="spacingAndGlyphs" textLength="28" x="68" y="1938.5332">OSF</text><text fill="#000000" font-family="sans-serif" font-size="12" lengthAdjust="spacingAndGlyphs" textLength="24" x="100" y="1938.5332">and</text><text fill="#000000" font-family="sans-serif" font-size="12" font-weight="bold" lengthAdjust="spacingAndGlyphs" textLength="26" x="128" y="1938.5332">BSY</text><text fill="#000000" font-family="sans-serif" font-size="12" lengthAdjust="spacingAndGlyphs" textLength="125" x="158" y="1938.5332">from status register</text><rect fill="#FEFECE" filter="url(#fij6dms92wlkl)" height="33.9688" rx="12.5" ry="12.5" style="stroke: #A80036; stroke-width: 1.5;" width="253" x="25" y="1971.3633"/><text fill="#000000" font-family="sans-serif" font-size="12" lengthAdjust="spacingAndGlyphs" textLength="233" x="35" y="1992.502">Read Temperature MSB Register (11)</text><rect fill="#FEFECE" filter="url(#fij6dms92wlkl)" height="33.9688" rx="12.5" ry="12.5" style="stroke: #A80036; stroke-width: 1.5;" width="229" x="37" y="2025.332"/><text fill="#000000" font-family="sans-serif" font-size="12" lengthAdjust="spacingAndGlyphs" textLength="209" x="47" y="2046.4707">Save Temperature as MSB(int8_t)</text><rect fill="#FEFECE" filter="url(#fij6dms92wlkl)" height="33.9688" rx="12.5" ry="12.5" style="stroke: #A80036; stroke-width: 1.5;" width="124" x="89.5" y="2127.7031"/><text fill="#000000" font-family="sans-serif" font-size="12" lengthAdjust="spacingAndGlyphs" textLength="104" x="99.5" y="2148.8418">Exit with -EAGAIN</text><ellipse cx="151.5" cy="2201.1875" fill="#FFFFFF" filter="url(#fij6dms92wlkl)" rx="11" ry="11" style="stroke: #000000; stroke-width: 1.0;"/><ellipse cx="151.5" cy="2201.1875" fill="#000000" rx="6" ry="6" style="stroke: #7F7F7F; stroke-width: 1.0;"/><polygon fill="#FEFECE" filter="url(#fij6dms92wlkl)" points="117,2079.3008,186,2079.3008,198,2091.3008,186,2103.3008,117,2103.3008,105,2091.3008,117,2079.3008" style="stroke: #A80036; stroke-width: 1.5;"/><text fill="#000000" font-family="sans-serif" font-size="11" lengthAdjust="spacingAndGlyphs" textLength="23" x="155.5" y="2113.5112">true</text><text fill="#000000" font-family="sans-serif" font-size="11" font-weight="bold" lengthAdjust="spacingAndGlyphs" textLength="69" x="117" y="2095.1089">Check OSF</text><rect fill="#FEFECE" filter="url(#fij6dms92wlkl)" height="33.9688" rx="12.5" ry="12.5" style="stroke: #A80036; stroke-width: 1.5;" width="115" x="94" y="2302.5898"/><text fill="#000000" font-family="sans-serif" font-size="12" lengthAdjust="spacingAndGlyphs" textLength="95" x="104" y="2323.7285">Write to dmesg</text><polygon fill="#FEFECE" filter="url(#fij6dms92wlkl)" points="136.5,2254.1875,166.5,2254.1875,178.5,2266.1875,166.5,2278.1875,136.5,2278.1875,124.5,2266.1875,136.5,2254.1875" style="stroke: #A80036; stroke-width: 1.5;"/><text fill="#000000" font-family="sans-serif" font-size="11" lengthAdjust="spacingAndGlyphs" textLength="210" x="155.5" y="2288.3979">is greater than 80째 or lower than -40째</text><text fill="#000000" font-family="sans-serif" font-size="11" lengthAdjust="spacingAndGlyphs" textLength="30" x="136.5" y="2269.9956">TEMP</text><polygon fill="#FEFECE" filter="url(#fij6dms92wlkl)" points="151.5,2356.5586,163.5,2368.5586,151.5,2380.5586,139.5,2368.5586,151.5,2356.5586" style="stroke: #A80036; stroke-width: 1.5;"/><ellipse cx="151.5" cy="2411.5586" fill="#FFFFFF" filter="url(#fij6dms92wlkl)" rx="11" ry="11" style="stroke: #000000; stroke-width: 1.0;"/><ellipse cx="151.5" cy="2411.5586" fill="#000000" rx="6" ry="6" style="stroke: #7F7F7F; stroke-width: 1.0;"/><rect fill="#FEFECE" filter="url(#fij6dms92wlkl)" height="33.9688" rx="12.5" ry="12.5" style="stroke: #A80036; stroke-width: 1.5;" width="62" x="120.5" y="2432.5586"/><text fill="#000000" font-family="sans-serif" font-size="12" font-weight="bold" lengthAdjust="spacingAndGlyphs" textLength="42" x="130.5" y="2453.6973">Setup</text><rect fill="#FEFECE" filter="url(#fij6dms92wlkl)" height="33.9688" rx="12.5" ry="12.5" style="stroke: #A80036; stroke-width: 1.5;" width="115" x="94" y="2486.5273"/><text fill="#000000" font-family="sans-serif" font-size="12" lengthAdjust="spacingAndGlyphs" textLength="95" x="104" y="2507.666">Write to dmesg</text><rect fill="#FEFECE" filter="url(#fij6dms92wlkl)" height="33.9688" rx="12.5" ry="12.5" style="stroke: #A80036; stroke-width: 1.5;" width="112" x="95.5" y="2540.4961"/><text fill="#000000" font-family="sans-serif" font-size="12" lengthAdjust="spacingAndGlyphs" textLength="92" x="105.5" y="2561.6348">Disable Alarms</text><rect fill="#FEFECE" filter="url(#fij6dms92wlkl)" height="33.9688" rx="12.5" ry="12.5" style="stroke: #A80036; stroke-width: 1.5;" width="132" x="85.5" y="2594.4648"/><text fill="#000000" font-family="sans-serif" font-size="12" lengthAdjust="spacingAndGlyphs" textLength="112" x="95.5" y="2615.6035">Disable Interrupts</text><rect fill="#FEFECE" filter="url(#fij6dms92wlkl)" height="33.9688" rx="12.5" ry="12.5" style="stroke: #A80036; stroke-width: 1.5;" width="115" x="94" y="2648.4336"/><text fill="#000000" font-family="sans-serif" font-size="12" lengthAdjust="spacingAndGlyphs" textLength="95" x="104" y="2669.5723">Write to dmesg</text><rect fill="#FEFECE" filter="url(#fij6dms92wlkl)" height="33.9688" rx="12.5" ry="12.5" style="stroke: #A80036; stroke-width: 1.5;" width="132" x="85.5" y="2702.4023"/><text fill="#000000" font-family="sans-serif" font-size="12" lengthAdjust="spacingAndGlyphs" textLength="112" x="95.5" y="2723.541">Enable 24hr clock</text><rect fill="#FEFECE" filter="url(#fij6dms92wlkl)" height="33.9688" rx="12.5" ry="12.5" style="stroke: #A80036; stroke-width: 1.5;" width="115" x="94" y="2756.3711"/><text fill="#000000" font-family="sans-serif" font-size="12" lengthAdjust="spacingAndGlyphs" textLength="95" x="104" y="2777.5098">Write to dmesg</text><rect fill="#FEFECE" filter="url(#fij6dms92wlkl)" height="33.9688" rx="12.5" ry="12.5" style="stroke: #A80036; stroke-width: 1.5;" width="94" x="104.5" y="2810.3398"/><text fill="#000000" font-family="sans-serif" font-size="12" font-weight="bold" lengthAdjust="spacingAndGlyphs" textLength="74" x="114.5" y="2831.4785">Check OSF</text><rect fill="#FEFECE" filter="url(#fij6dms92wlkl)" height="33.9688" rx="12.5" ry="12.5" style="stroke: #A80036; stroke-width: 1.5;" width="123" x="90" y="2864.3086"/><text fill="#000000" font-family="sans-serif" font-size="12" lengthAdjust="spacingAndGlyphs" textLength="103" x="100" y="2885.4473">Return SUCCESS</text><ellipse cx="151.5" cy="2929.2773" fill="#FFFFFF" filter="url(#fij6dms92wlkl)" rx="11" ry="11" style="stroke: #000000; stroke-width: 1.0;"/><ellipse cx="151.5" cy="2929.2773" fill="#000000" rx="6" ry="6" style="stroke: #7F7F7F; stroke-width: 1.0;"/><line style="stroke: #A80036; stroke-width: 1.5;" x1="151.5" x2="151.5" y1="146.3398" y2="174.8555"/><polygon fill="#A80036" points="147.5,164.8555,151.5,174.8555,155.5,164.8555,151.5,168.8555" style="stroke: #A80036; stroke-width: 1.0;"/><line style="stroke: #A80036; stroke-width: 1.5;" x1="151.5" x2="151.5" y1="87.9688" y2="112.3711"/><polygon fill="#A80036" points="147.5,102.3711,151.5,112.3711,155.5,102.3711,151.5,106.3711" style="stroke: #A80036; stroke-width: 1.0;"/><line style="stroke: #A80036; stroke-width: 1.5;" x1="219.5" x2="231.5" y1="75.9688" y2="75.9688"/><polygon fill="#A80036" points="227.5,144.8555,231.5,154.8555,235.5,144.8555,231.5,148.8555" style="stroke: #A80036; stroke-width: 1.5;"/><line style="stroke: #A80036; stroke-width: 1.5;" x1="231.5" x2="231.5" y1="75.9688" y2="218.8555"/><line style="stroke: #A80036; stroke-width: 1.5;" x1="231.5" x2="151.5" y1="218.8555" y2="218.8555"/><line style="stroke: #A80036; stroke-width: 1.5;" x1="151.5" x2="151.5" y1="218.8555" y2="238.8555"/><polygon fill="#A80036" points="147.5,228.8555,151.5,238.8555,155.5,228.8555,151.5,232.8555" style="stroke: #A80036; stroke-width: 1.0;"/><line style="stroke: #A80036; stroke-width: 1.5;" x1="151.5" x2="151.5" y1="43.9688" y2="63.9688"/><polygon fill="#A80036" points="147.5,53.9688,151.5,63.9688,155.5,53.9688,151.5,57.9688" style="stroke: #A80036; stroke-width: 1.0;"/><line style="stroke: #A80036; stroke-width: 1.5;" x1="151.5" x2="151.5" y1="272.8242" y2="292.8242"/><polygon fill="#A80036" points="147.5,282.8242,151.5,292.8242,155.5,282.8242,151.5,286.8242" style="stroke: #A80036; stroke-width: 1.0;"/><line style="stroke: #A80036; stroke-width: 1.5;" x1="151.5" x2="151.5" y1="326.793" y2="346.793"/><polygon fill="#A80036" points="147.5,336.793,151.5,346.793,155.5,336.793,151.5,340.793" style="stroke: #A80036; stroke-width: 1.0;"/><line style="stroke: #A80036; stroke-width: 1.5;" x1="151.5" x2="151.5" y1="380.7617" y2="400.7617"/><polygon fill="#A80036" points="147.5,390.7617,151.5,400.7617,155.5,390.7617,151.5,394.7617" style="stroke: #A80036; stroke-width: 1.0;"/><line style="stroke: #A80036; stroke-width: 1.5;" x1="151.5" x2="151.5" y1="434.7305" y2="454.7305"/><polygon fill="#A80036" points="147.5,444.7305,151.5,454.7305,155.5,444.7305,151.5,448.7305" style="stroke: #A80036; stroke-width: 1.0;"/><line style="stroke: #A80036; stroke-width: 1.5;" x1="151.5" x2="151.5" y1="488.6992" y2="508.6992"/><polygon fill="#A80036" points="147.5,498.6992,151.5,508.6992,155.5,498.6992,151.5,502.6992" style="stroke: #A80036; stroke-width: 1.0;"/><line style="stroke: #A80036; stroke-width: 1.5;" x1="151.5" x2="151.5" y1="542.668" y2="562.668"/><polygon fill="#A80036" points="147.5,552.668,151.5,562.668,155.5,552.668,151.5,556.668" style="stroke: #A80036; stroke-width: 1.0;"/><line style="stroke: #A80036; stroke-width: 1.5;" x1="151.5" x2="151.5" y1="596.6367" y2="616.6367"/><polygon fill="#A80036" points="147.5,606.6367,151.5,616.6367,155.5,606.6367,151.5,610.6367" style="stroke: #A80036; stroke-width: 1.0;"/><line style="stroke: #A80036; stroke-width: 1.5;" x1="151.5" x2="151.5" y1="650.6055" y2="670.6055"/><polygon fill="#A80036" points="147.5,660.6055,151.5,670.6055,155.5,660.6055,151.5,664.6055" style="stroke: #A80036; stroke-width: 1.0;"/><line style="stroke: #A80036; stroke-width: 1.5;" x1="151.5" x2="151.5" y1="838.9453" y2="867.4609"/><polygon fill="#A80036" points="147.5,857.4609,151.5,867.4609,155.5,857.4609,151.5,861.4609" style="stroke: #A80036; stroke-width: 1.0;"/><line style="stroke: #A80036; stroke-width: 1.5;" x1="151.5" x2="151.5" y1="780.5742" y2="804.9766"/><polygon fill="#A80036" points="147.5,794.9766,151.5,804.9766,155.5,794.9766,151.5,798.9766" style="stroke: #A80036; stroke-width: 1.0;"/><line style="stroke: #A80036; stroke-width: 1.5;" x1="219.5" x2="231.5" y1="768.5742" y2="768.5742"/><polygon fill="#A80036" points="227.5,837.4609,231.5,847.4609,235.5,837.4609,231.5,841.4609" style="stroke: #A80036; stroke-width: 1.5;"/><line style="stroke: #A80036; stroke-width: 1.5;" x1="231.5" x2="231.5" y1="768.5742" y2="911.4609"/><line style="stroke: #A80036; stroke-width: 1.5;" x1="231.5" x2="151.5" y1="911.4609" y2="911.4609"/><line style="stroke: #A80036; stroke-width: 1.5;" x1="151.5" x2="151.5" y1="911.4609" y2="931.4609"/><polygon fill="#A80036" points="147.5,921.4609,151.5,931.4609,155.5,921.4609,151.5,925.4609" style="stroke: #A80036; stroke-width: 1.0;"/><line style="stroke: #A80036; stroke-width: 1.5;" x1="151.5" x2="151.5" y1="736.5742" y2="756.5742"/><polygon fill="#A80036" points="147.5,746.5742,151.5,756.5742,155.5,746.5742,151.5,750.5742" style="stroke: #A80036; stroke-width: 1.0;"/><line style="stroke: #A80036; stroke-width: 1.5;" x1="151.5" x2="151.5" y1="965.4297" y2="985.4297"/><polygon fill="#A80036" points="147.5,975.4297,151.5,985.4297,155.5,975.4297,151.5,979.4297" style="stroke: #A80036; stroke-width: 1.0;"/><line style="stroke: #A80036; stroke-width: 1.5;" x1="151.5" x2="151.5" y1="1019.3984" y2="1039.3984"/><polygon fill="#A80036" points="147.5,1029.3984,151.5,1039.3984,155.5,1029.3984,151.5,1033.3984" style="stroke: #A80036; stroke-width: 1.0;"/><line style="stroke: #A80036; stroke-width: 1.5;" x1="151.5" x2="151.5" y1="1073.3672" y2="1093.3672"/><polygon fill="#A80036" points="147.5,1083.3672,151.5,1093.3672,155.5,1083.3672,151.5,1087.3672" style="stroke: #A80036; stroke-width: 1.0;"/><line style="stroke: #A80036; stroke-width: 1.5;" x1="151.5" x2="151.5" y1="1127.3359" y2="1147.3359"/><polygon fill="#A80036" points="147.5,1137.3359,151.5,1147.3359,155.5,1137.3359,151.5,1141.3359" style="stroke: #A80036; stroke-width: 1.0;"/><line style="stroke: #A80036; stroke-width: 1.5;" x1="151.5" x2="151.5" y1="1181.3047" y2="1201.3047"/><polygon fill="#A80036" points="147.5,1191.3047,151.5,1201.3047,155.5,1191.3047,151.5,1195.3047" style="stroke: #A80036; stroke-width: 1.0;"/><line style="stroke: #A80036; stroke-width: 1.5;" x1="151.5" x2="151.5" y1="1235.2734" y2="1255.2734"/><polygon fill="#A80036" points="147.5,1245.2734,151.5,1255.2734,155.5,1245.2734,151.5,1249.2734" style="stroke: #A80036; stroke-width: 1.0;"/><line style="stroke: #A80036; stroke-width: 1.5;" x1="151.5" x2="151.5" y1="1289.2422" y2="1309.2422"/><polygon fill="#A80036" points="147.5,1299.2422,151.5,1309.2422,155.5,1299.2422,151.5,1303.2422" style="stroke: #A80036; stroke-width: 1.0;"/><line style="stroke: #A80036; stroke-width: 1.5;" x1="151.5" x2="151.5" y1="1477.582" y2="1497.582"/><polygon fill="#A80036" points="147.5,1487.582,151.5,1497.582,155.5,1487.582,151.5,1491.582" style="stroke: #A80036; stroke-width: 1.0;"/><line style="stroke: #A80036; stroke-width: 1.5;" x1="151.5" x2="151.5" y1="1531.5508" y2="1551.5508"/><polygon fill="#A80036" points="147.5,1541.5508,151.5,1551.5508,155.5,1541.5508,151.5,1545.5508" style="stroke: #A80036; stroke-width: 1.0;"/><line style="stroke: #A80036; stroke-width: 1.5;" x1="151.5" x2="151.5" y1="1585.5195" y2="1605.5195"/><polygon fill="#A80036" points="147.5,1595.5195,151.5,1605.5195,155.5,1595.5195,151.5,1599.5195" style="stroke: #A80036; stroke-width: 1.0;"/><line style="stroke: #A80036; stroke-width: 1.5;" x1="151.5" x2="151.5" y1="1639.4883" y2="1659.4883"/><polygon fill="#A80036" points="147.5,1649.4883,151.5,1659.4883,155.5,1649.4883,151.5,1653.4883" style="stroke: #A80036; stroke-width: 1.0;"/><line style="stroke: #A80036; stroke-width: 1.5;" x1="151.5" x2="151.5" y1="1419.2109" y2="1443.6133"/><polygon fill="#A80036" points="147.5,1433.6133,151.5,1443.6133,155.5,1433.6133,151.5,1437.6133" style="stroke: #A80036; stroke-width: 1.0;"/><line style="stroke: #A80036; stroke-width: 1.5;" x1="175.5" x2="219" y1="1407.2109" y2="1407.2109"/><polygon fill="#A80036" points="215,1549.5508,219,1559.5508,223,1549.5508,219,1553.5508" style="stroke: #A80036; stroke-width: 1.5;"/><line style="stroke: #A80036; stroke-width: 1.5;" x1="219" x2="219" y1="1407.2109" y2="1703.4883"/><line style="stroke: #A80036; stroke-width: 1.5;" x1="219" x2="151.5" y1="1703.4883" y2="1703.4883"/><line style="stroke: #A80036; stroke-width: 1.5;" x1="151.5" x2="151.5" y1="1703.4883" y2="1723.4883"/><polygon fill="#A80036" points="147.5,1713.4883,151.5,1723.4883,155.5,1713.4883,151.5,1717.4883" style="stroke: #A80036; stroke-width: 1.0;"/><line style="stroke: #A80036; stroke-width: 1.5;" x1="151.5" x2="151.5" y1="1375.2109" y2="1395.2109"/><polygon fill="#A80036" points="147.5,1385.2109,151.5,1395.2109,155.5,1385.2109,151.5,1389.2109" style="stroke: #A80036; stroke-width: 1.0;"/><line style="stroke: #A80036; stroke-width: 1.5;" x1="151.5" x2="151.5" y1="1757.457" y2="1777.457"/><polygon fill="#A80036" points="147.5,1767.457,151.5,1777.457,155.5,1767.457,151.5,1771.457" style="stroke: #A80036; stroke-width: 1.0;"/><line style="stroke: #A80036; stroke-width: 1.5;" x1="151.5" x2="151.5" y1="1843.4258" y2="1863.4258"/><polygon fill="#A80036" points="147.5,1853.4258,151.5,1863.4258,155.5,1853.4258,151.5,1857.4258" style="stroke: #A80036; stroke-width: 1.0;"/><line style="stroke: #A80036; stroke-width: 1.5;" x1="151.5" x2="151.5" y1="1897.3945" y2="1917.3945"/><polygon fill="#A80036" points="147.5,1907.3945,151.5,1917.3945,155.5,1907.3945,151.5,1911.3945" style="stroke: #A80036; stroke-width: 1.0;"/><line style="stroke: #A80036; stroke-width: 1.5;" x1="151.5" x2="151.5" y1="1951.3633" y2="1971.3633"/><polygon fill="#A80036" points="147.5,1961.3633,151.5,1971.3633,155.5,1961.3633,151.5,1965.3633" style="stroke: #A80036; stroke-width: 1.0;"/><line style="stroke: #A80036; stroke-width: 1.5;" x1="151.5" x2="151.5" y1="2005.332" y2="2025.332"/><polygon fill="#A80036" points="147.5,2015.332,151.5,2025.332,155.5,2015.332,151.5,2019.332" style="stroke: #A80036; stroke-width: 1.0;"/><line style="stroke: #A80036; stroke-width: 1.5;" x1="151.5" x2="151.5" y1="2161.6719" y2="2190.1875"/><polygon fill="#A80036" points="147.5,2180.1875,151.5,2190.1875,155.5,2180.1875,151.5,2184.1875" style="stroke: #A80036; stroke-width: 1.0;"/><line style="stroke: #A80036; stroke-width: 1.5;" x1="151.5" x2="151.5" y1="2103.3008" y2="2127.7031"/><polygon fill="#A80036" points="147.5,2117.7031,151.5,2127.7031,155.5,2117.7031,151.5,2121.7031" style="stroke: #A80036; stroke-width: 1.0;"/><line style="stroke: #A80036; stroke-width: 1.5;" x1="198" x2="223.5" y1="2091.3008" y2="2091.3008"/><polygon fill="#A80036" points="219.5,2160.1875,223.5,2170.1875,227.5,2160.1875,223.5,2164.1875" style="stroke: #A80036; stroke-width: 1.5;"/><line style="stroke: #A80036; stroke-width: 1.5;" x1="223.5" x2="223.5" y1="2091.3008" y2="2234.1875"/><line style="stroke: #A80036; stroke-width: 1.5;" x1="223.5" x2="151.5" y1="2234.1875" y2="2234.1875"/><line style="stroke: #A80036; stroke-width: 1.5;" x1="151.5" x2="151.5" y1="2234.1875" y2="2254.1875"/><polygon fill="#A80036" points="147.5,2244.1875,151.5,2254.1875,155.5,2244.1875,151.5,2248.1875" style="stroke: #A80036; stroke-width: 1.0;"/><line style="stroke: #A80036; stroke-width: 1.5;" x1="151.5" x2="151.5" y1="2059.3008" y2="2079.3008"/><polygon fill="#A80036" points="147.5,2069.3008,151.5,2079.3008,155.5,2069.3008,151.5,2073.3008" style="stroke: #A80036; stroke-width: 1.0;"/><line style="stroke: #A80036; stroke-width: 1.5;" x1="151.5" x2="151.5" y1="2278.1875" y2="2302.5898"/><polygon fill="#A80036" points="147.5,2292.5898,151.5,2302.5898,155.5,2292.5898,151.5,2296.5898" style="stroke: #A80036; stroke-width: 1.0;"/><line style="stroke: #A80036; stroke-width: 1.5;" x1="178.5" x2="219" y1="2266.1875" y2="2266.1875"/><polygon fill="#A80036" points="215,2309.5742,219,2319.5742,223,2309.5742,219,2313.5742" style="stroke: #A80036; stroke-width: 1.5;"/><line style="stroke: #A80036; stroke-width: 1.5;" x1="219" x2="219" y1="2266.1875" y2="2368.5586"/><line style="stroke: #A80036; stroke-width: 1.5;" x1="219" x2="163.5" y1="2368.5586" y2="2368.5586"/><polygon fill="#A80036" points="173.5,2364.5586,163.5,2368.5586,173.5,2372.5586,169.5,2368.5586" style="stroke: #A80036; stroke-width: 1.0;"/><line style="stroke: #A80036; stroke-width: 1.5;" x1="151.5" x2="151.5" y1="2336.5586" y2="2356.5586"/><polygon fill="#A80036" points="147.5,2346.5586,151.5,2356.5586,155.5,2346.5586,151.5,2350.5586" style="stroke: #A80036; stroke-width: 1.0;"/><line style="stroke: #A80036; stroke-width: 1.5;" x1="151.5" x2="151.5" y1="2380.5586" y2="2400.5586"/><polygon fill="#A80036" points="147.5,2390.5586,151.5,2400.5586,155.5,2390.5586,151.5,2394.5586" style="stroke: #A80036; stroke-width: 1.0;"/><line style="stroke: #A80036; stroke-width: 1.5;" x1="151.5" x2="151.5" y1="2466.5273" y2="2486.5273"/><polygon fill="#A80036" points="147.5,2476.5273,151.5,2486.5273,155.5,2476.5273,151.5,2480.5273" style="stroke: #A80036; stroke-width: 1.0;"/><line style="stroke: #A80036; stroke-width: 1.5;" x1="151.5" x2="151.5" y1="2520.4961" y2="2540.4961"/><polygon fill="#A80036" points="147.5,2530.4961,151.5,2540.4961,155.5,2530.4961,151.5,2534.4961" style="stroke: #A80036; stroke-width: 1.0;"/><line style="stroke: #A80036; stroke-width: 1.5;" x1="151.5" x2="151.5" y1="2574.4648" y2="2594.4648"/><polygon fill="#A80036" points="147.5,2584.4648,151.5,2594.4648,155.5,2584.4648,151.5,2588.4648" style="stroke: #A80036; stroke-width: 1.0;"/><line style="stroke: #A80036; stroke-width: 1.5;" x1="151.5" x2="151.5" y1="2628.4336" y2="2648.4336"/><polygon fill="#A80036" points="147.5,2638.4336,151.5,2648.4336,155.5,2638.4336,151.5,2642.4336" style="stroke: #A80036; stroke-width: 1.0;"/><line style="stroke: #A80036; stroke-width: 1.5;" x1="151.5" x2="151.5" y1="2682.4023" y2="2702.4023"/><polygon fill="#A80036" points="147.5,2692.4023,151.5,2702.4023,155.5,2692.4023,151.5,2696.4023" style="stroke: #A80036; stroke-width: 1.0;"/><line style="stroke: #A80036; stroke-width: 1.5;" x1="151.5" x2="151.5" y1="2736.3711" y2="2756.3711"/><polygon fill="#A80036" points="147.5,2746.3711,151.5,2756.3711,155.5,2746.3711,151.5,2750.3711" style="stroke: #A80036; stroke-width: 1.0;"/><line style="stroke: #A80036; stroke-width: 1.5;" x1="151.5" x2="151.5" y1="2790.3398" y2="2810.3398"/><polygon fill="#A80036" points="147.5,2800.3398,151.5,2810.3398,155.5,2800.3398,151.5,2804.3398" style="stroke: #A80036; stroke-width: 1.0;"/><line style="stroke: #A80036; stroke-width: 1.5;" x1="151.5" x2="151.5" y1="2844.3086" y2="2864.3086"/><polygon fill="#A80036" points="147.5,2854.3086,151.5,2864.3086,155.5,2854.3086,151.5,2858.3086" style="stroke: #A80036; stroke-width: 1.0;"/><line style="stroke: #A80036; stroke-width: 1.5;" x1="151.5" x2="151.5" y1="2898.2773" y2="2918.2773"/><polygon fill="#A80036" points="147.5,2908.2773,151.5,2918.2773,155.5,2908.2773,151.5,2912.2773" style="stroke: #A80036; stroke-width: 1.0;"/><!--MD5=[b81eff9e9383b32bc7a76a6e78534de5]
@startuml

:**Read Date**;
if (Is already accessed) then (yes)
	:Return -EBUSY;
	stop
endif
:Set access flag ((_Atomic));
:**Poll Status**;
:Write to dmesg;
:Read Registers;
:Parse Registers;
:Print Date;
:Release Access flag;
:Return SUCCESS;
stop

:**Write Date**;
if (Is already accessed) then (yes)
	:Return -EBUSY;
	stop
endif
:Set access flag ((_Atomic));
:Read "YYYY-MM-DD hh:mm:ss" from in;
:**Check Input**;
:**Parse Input**;
:Write data;
:Release Access flag;
:Return SUCCESS;
stop


:**Check OSF**;
if (OSF) then (is 1)
	:Enable EOSC;
	:Reset OSF;
	:Write to dmesg;
	:Return true;
	stop
endif
:Return false;
stop


:**Poll Status**;
:Read Status Register (0F);
:Extract **OSF** and **BSY** from status register;
:Read Temperature MSB Register (11);
:Save Temperature as MSB(int8_t);

if (**Check OSF**) then (true)
	:Exit with -EAGAIN;
	stop
endif
if (TEMP) then (is greater than 80째 or lower than -40째)
	:Write to dmesg;
endif
stop


:**Setup**;
:Write to dmesg;
:Disable Alarms;
:Disable Interrupts;
:Write to dmesg;
:Enable 24hr clock;
:Write to dmesg;
:**Check OSF**;
:Return SUCCESS;
stop
@enduml

PlantUML version 1.2020.07(Sun Apr 19 13:42:40 CEST 2020)
(GPL source distribution)
Java Runtime: OpenJDK Runtime Environment
JVM: OpenJDK 64-Bit Server VM
Java Version: 1.8.0_252-b09
Operating System: Linux
Default Encoding: UTF-8
Language: en
Country: US
--></g></svg>